<svg height="512" viewBox="0 0 55 60" width="512" xmlns="http://www.w3.org/2000/svg"><g id="Page-1" fill="none" fill-rule="evenodd"><g id="036---Brain-Wired" fill-rule="nonzero" transform="translate(0 -1)"><path id="Shape" d="m47.23 57.13c.2993503.6196415.2591127 1.3496617-.1065246 1.9326501s-1.0053141.9370537-1.6934754.9373499h-20.17c-.858799-.0035163-1.6194833-.5549118-1.89-1.37-.66-1.9-2.11-5.24-4.51-6.33-2.8476515 1.0311337-5.7484703 1.909057-8.69 2.63-1.43386925.3058116-2.85257563-.5781176-3.21-2-.85-2.46.33-3.13-.05-4.6-.26-1.02-1.22-1.27-1.98-1.81-.61-.43.49-1.84.49-1.84s-1.17-.87-1.59-1.25c-.44-.37.17-.99.73-2.16.22857894-.5041746.29159227-1.0677938.18-1.61-.2-1.08-1.82-1.48-2.62-2.08-1.67-1.24-1.76-1.54 2.6-6.25.91311456-1.0615165 1.49081641-2.3700459 1.66-3.76.08-.47.56-.98.55-1.55-.02-1.43-2.09-2.02-2.28-3.41-.15-1.08 1.24-3.05 1.69-4.98.24613795-1.1813929.56338182-2.3468467.95-3.49.83024267-2.3020922 2.11966974-4.4114452 3.79-6.2 2.45-2.6 5.85-3.72 9.29-4.52 12.58-2.9 18.89-1.31 26.06 4.33 2.7040838 2.01294837 4.6773227 4.8534293 5.62 8.09.7219224 2.6718051 1.0586539 5.4330027 1 8.2-.1 7.34-4.77 9.91-6.85 14.66-1.2724507 2.9274818-1.7485282 6.1392796-1.38 9.31.2766674 3.1445372 1.0883353 6.2187294 2.4 9.09z" fill="#e8edfc"/><path id="Shape" d="m28.71 46.03c.07 2.97-4.31 4.39-5.66 4.81-.56.18-2.2.78-4.19 1.46" fill="#e8edfc"/><path id="Shape" d="m47.22 57.1c-1.3116647-2.8712706-2.1233326-5.9454628-2.4-9.09-.3685282-3.1707204.1075493-6.3825182 1.38-9.31 2.08-4.75 6.75-7.32 6.85-14.66.0586539-2.7669973-.2780776-5.5281949-1-8.2-.9426773-3.2365707-2.9159162-6.07705163-5.62-8.09-5.189-4.082-9.94-6.03-16.93-5.702 5.425.3 9.518 2.23 13.931 5.7 2.7040838 2.01294837 4.6773227 4.8534293 5.62 8.09.7219224 2.6718051 1.0586539 5.4330027 1 8.2-.1 7.34-4.77 9.91-6.85 14.66-1.2724507 2.9274818-1.7485282 6.1392796-1.38 9.31.2766674 3.1445372 1.0883353 6.2187294 2.4 9.09l.01.03c.3003632.6199788.2605065 1.3508999-.1054894 1.9345425-.365996.5836426-1.0066045.9378387-1.6955106.9374575h3c.6881613-.0002962 1.3278381-.3543615 1.6934754-.9373499s.4058749-1.3130086.1065246-1.9326501z" fill="#cad9fc"/><circle id="Oval" cx="34" cy="9" fill="#e8edfc" r="3"/><path id="Shape" d="m34 6c-.5281059.00274535-1.0459153.14635115-1.5.416.9273539.5298262 1.4996803 1.5159639 1.4996803 2.584s-.5723264 2.0541738-1.4996803 2.584c.4540847.2696489.9718941.4132547 1.5.416 1.6568542 0 3-1.3431458 3-3 0-1.65685425-1.3431458-3-3-3z" fill="#cad9fc"/><circle id="Oval" cx="43" cy="15" fill="#e8edfc" r="3"/><path id="Shape" d="m43 12c-.5281059.0027453-1.0459153.1463511-1.5.416.9273539.5298262 1.4996803 1.5159639 1.4996803 2.584s-.5723264 2.0541738-1.4996803 2.584c.4540847.2696489.9718941.4132547 1.5.416 1.6568542 0 3-1.3431458 3-3s-1.3431458-3-3-3z" fill="#cad9fc"/><circle id="Oval" cx="23" cy="10" fill="#e8edfc" r="3"/><path id="Shape" d="m23 7c-.5281059.00274535-1.0459153.14635115-1.5.416.9273539.5298262 1.4996803 1.5159639 1.4996803 2.584s-.5723264 2.0541738-1.4996803 2.584c.4540847.2696489.9718941.4132547 1.5.416 1.6568542 0 3-1.3431458 3-3 0-1.65685425-1.3431458-3-3-3z" fill="#cad9fc"/><circle id="Oval" cx="14" cy="16" fill="#e8edfc" r="3"/><path id="Shape" d="m14 13c-.5281059.0027453-1.0459153.1463511-1.5.416.9273539.5298262 1.4996803 1.5159639 1.4996803 2.584s-.5723264 2.0541738-1.4996803 2.584c.4540847.2696489.9718941.4132547 1.5.416 1.6568542 0 2.9999999-1.3431458 2.9999999-3s-1.3431457-3-2.9999999-3z" fill="#cad9fc"/><circle id="Oval" cx="22" cy="25" fill="#e8edfc" r="3"/><path id="Shape" d="m22 22c-.5281059.0027453-1.0459153.1463511-1.5.416.9273539.5298262 1.4996803 1.5159639 1.4996803 2.584s-.5723264 2.0541738-1.4996803 2.584c.4540847.2696489.9718941.4132547 1.5.416 1.6568542 0 3-1.3431458 3-3s-1.3431458-3-3-3z" fill="#cad9fc"/><circle id="Oval" cx="43" cy="30" fill="#e8edfc" r="3"/><path id="Shape" d="m43 27c-.5281059.0027453-1.0459153.1463511-1.5.416.9273539.5298262 1.4996803 1.5159639 1.4996803 2.584s-.5723264 2.0541738-1.4996803 2.584c.4540847.2696489.9718941.4132547 1.5.416 1.6568542 0 3-1.3431458 3-3s-1.3431458-3-3-3z" fill="#cad9fc"/><g fill="#fff"><path id="Shape" d="m9.96 52.93c-.85-2.46.33-3.13-.05-4.6-.26-1.02-1.22-1.27-1.98-1.81-.61-.43.49-1.84.49-1.84s-1.17-.87-1.59-1.25c-.712-.6 1.314-1.861.91-3.77-.2-1.08-1.82-1.48-2.62-2.08-1.67-1.24-1.76-1.54 2.6-6.25.91311456-1.0615165 1.49081641-2.3700459 1.66-3.76.08-.47.56-.98.55-1.55-.02-1.43-2.09-2.02-2.28-3.41-.15-1.08 1.24-3.05 1.69-4.98.24613795-1.1813929.56338182-2.3468467.95-3.49.8302427-2.3020922 2.1196697-4.4114452 3.79-6.2 2.45-2.6 5.85-3.72 9.29-4.52 2.9030331-.71263887 5.8624952-1.17169845 8.845-1.372-3.9929027-.09525333-7.9795943.36652301-11.845 1.372-3.44.8-6.84 1.92-9.29 4.52-1.67033026 1.7885548-2.95975733 3.8979078-3.79 6.2-.38661818 1.1431533-.70386205 2.3086071-.95 3.49-.45 1.93-1.84 3.9-1.69 4.98.19 1.39 2.26 1.98 2.28 3.41.01.57-.47 1.08-.55 1.55-.16918359 1.3899541-.74688544 2.6984835-1.66 3.76-4.36 4.71-4.27 5.01-2.6 6.25.8.6 2.42 1 2.62 2.08.4 1.909-1.622 3.171-.91 3.77.42.38 1.59 1.25 1.59 1.25s-1.1 1.41-.49 1.84c.76.54 1.72.79 1.98 1.81.38 1.47-.8 2.14.05 4.6.35742437 1.4218824 1.77613075 2.3058116 3.21 2 .35-.074.738-.168 1.142-.271-.6441006-.3947979-1.1241528-1.0087108-1.352-1.729z"/><path id="Shape" d="m26.37 58.63c-.66-1.9-2.11-5.24-4.51-6.33-.624.218-1.287.443-1.961.668 1.783 1.436 2.913 4.056 3.471 5.662.2705167.8150882 1.031201 1.3664837 1.89 1.37h3c-.858799-.0035163-1.6194833-.5549118-1.89-1.37z"/><path id="Shape" d="m8.024 15.084-1.907-.6c.86248798-2.6932874 2.30929212-5.16279121 4.237-7.232l1.454 1.373c-1.719601 1.8495522-3.01144072 4.0546242-3.784 6.459z"/></g><path id="Shape" d="m8.712 12.127c-.55228475.0027614-1.00223858-.4427153-1.005-.995s.44271525-1.0022386.995-1.005h.01c.55228475 0 1 .4477153 1 1s-.44771525 1-1 1z" fill="#428dff"/><path id="Shape" d="m47.045 6.962c-7.88-6.2-14.67-7.337-26.9-4.515-3.322.766-7.082 1.935-9.79 4.8-.37941962.40151101-.36151101 1.03458038.04 1.414.401511.37941962 1.0345804.36151101 1.414-.04 2.337-2.473 5.6-3.493 8.785-4.227 13.042-3.009 18.724-.965 25.217 4.142 2.5390678 1.8790251 4.3917578 4.5389736 5.274 7.572.6985506 2.5803426 1.0241858 5.2473851.967 7.92-.063 4.509-1.927 7.028-3.9 9.694-1.127994 1.4134085-2.0902735 2.9514451-2.868 4.584-1.3493928 3.0857763-1.8519743 6.4754401-1.456 9.82.2997694 3.2642946 1.1448212 6.45521 2.5 9.44.1490558.3094118.1289022.6736672-.0533777.9647467-.18228.2910796-.5011805.4682536-.8446223.4692533h-20.166c-.4325284-.0037611-.8149513-.2817408-.952-.692-.6513546-2.1228866-1.7735868-4.071325-3.283-5.7l.747-.262c.739-.26 1.3-.456 1.576-.544 4.278-1.346 6.418-3.3 6.359-5.792.0011933-.2676604-.1079281-.5239917-.3016811-.7086625-.193753-.1846707-.4550239-.2813698-.7223189-.2673375-.5519545.013101-.988854.4710397-.976 1.023.024 1.031-.816 2.534-4.962 3.838-.292.092-.87.295-1.636.564-.717.252-1.6.564-2.575.9-2.8074281 1.018951-5.6679445 1.8852177-8.569 2.595-.93504336.181199-1.84495523-.4130111-2.055-1.342-.31226622-.7816048-.3475559-1.6465547-.1-2.451.20653589-.6723718.23308611-1.3871589.077-2.073-.28641218-.9171504-.95766294-1.6643229-1.839-2.047-.072-.041-.144-.081-.215-.123.1064341-.2196804.2347499-.428068.383-.622.16571468-.2123292.23877088-.4825289.20263124-.7494353-.03613964-.2669063-.1784191-.5079491-.39463124-.6685647-.24-.178-.81-.607-1.22-.935.051-.094.108-.2.161-.29.153-.271.329-.585.5-.943.31898079-.6991592.41297567-1.4801204.269-2.235-.233-1.227-1.4-1.824-2.255-2.261-.26202828-.1237986-.5146961-.2665091-.756-.427-.234337-.1628795-.45536548-.3441162-.661-.542.017-.578 2.217-2.951 3.4-4.226 1.05083211-1.2040765 1.71741103-2.6949984 1.914-4.281.0424573-.1152125.09325865-.227176.152-.335.2492302-.422725.38975634-.9006513.409-1.391-.10117942-1.0115774-.63829334-1.9287971-1.471-2.512-.4-.37-.784-.72-.827-1.028.12134316-.6664309.34676502-1.3096256.668-1.906.41858688-.8692024.75343227-1.7762985 1-2.709.223-.964.429-1.9.708-2.776.14693786-.5126799-.12218419-1.0526603-.62-1.244-.25521328-.0974598-.53957422-.0836137-.78411162.03818-.24453739.1217936-.4269117.3404085-.50288838.60282-.314.993-.529 1.98-.749 2.927-.22161553.8072892-.51754681 1.5923106-.884 2.345-.53234497.9106108-.81582734 1.945218-.822 3 .20220961.8930842.71857797 1.6837843 1.455 2.228.489.449.811.765.814 1.053-.0426549.1625016-.10760496.3183145-.193.463-.15987852.28395-.27490331.5909076-.341.91-.13667315 1.1992847-.62676198 2.3308748-1.408 3.251-3.134 3.385-4.031 4.552-3.921 5.76.17127646.8394853.70499981 1.560268 1.458 1.969.32967655.2303902.67786645.4330829 1.041.606.43.22 1.151.588 1.2.851.06523252.3388567.02654137.689517-.111 1.006-.147.314-.3.584-.433.82-.39.69-.978 1.733-.056 2.511.216.191.586.482.923.74-.25085003.4395097-.36275882.9446681-.321 1.449.05266952.3912911.26521059.743233.587.972.223.159.461.3.7.433.586.335.814.491.893.8.07246024.3741394.04345662.7608544-.084 1.12-.33145395 1.1753602-.2749925 2.4262792.161 3.567.44237069 1.5922335 1.87968406 2.7035877 3.532 2.731.27489515-.0005248.5490063-.0293433.818-.086 2.8433542-.6868578 5.6474543-1.5270863 8.4-2.517 1.386.816 2.7 2.805 3.656 5.568.4125672 1.2170881 1.5519043 2.0383585 2.837 2.045h20.166c1.0382387-.0007248 2.0022976-.5382207 2.5487514-1.4210164.5464538-.8827958.5976113-1.9853811.1352486-2.9149836-1.2483046-2.7781515-2.025588-5.7446704-2.3-8.778-.3542925-2.9908373.0944212-6.0220706 1.3-8.782.7190329-1.4931215 1.6057444-2.8995137 2.643-4.192 1.978-2.673 4.22-5.7 4.293-10.855.0595593-2.866604-.291672-5.7269669-1.043-8.494-1.0066632-3.4354666-3.0982282-6.45283509-5.962-8.601z" fill="#428dff"/><path id="Shape" d="m17.93 15.312c-.3383897-1.9946128-2.1076474-3.4261008-4.1289574-3.3406965-2.0213099.0854044-3.663511 1.6610334-3.83244225 3.6770815-.16893128 2.0160481 1.18815665 3.8429973 3.16706715 4.2635933 1.9789105.4205959 3.9617219-.696494 4.6273325-2.6069783 2.13.2 5 .54 7.864 1.06l.16.03c-1.00939.8032761-1.9040331 1.7409859-2.659 2.787-.365156-.1151674-.7451528-.1764789-1.128-.182-1.9124543-.0070086-3.5644012 1.335892-3.9480839 3.2094762-.3836827 1.8735843.60741 3.7577409 2.36867 4.5030553s3.8037575.1448857 4.8814834-1.4349995c1.077726-1.5798851.8915011-3.700647-.4450695-5.068532.8318037-1.1661394 1.8970202-2.1465608 3.128-2.879.2375484-.1287029.484604-.2390254.739-.33 1.4135043.3147106 2.8003615.7389926 4.148 1.269.0308537.017259.0625609.0329457.095.047l.017.008.016.008c.8448694.3079405 1.6233939.7739013 2.294 1.373.1233087.1229332.2295878.261836.316.413.46.775.359 1.924-.32 3.621-.371.936-.859 1.911-1.376 2.943-1.764 3.521-3.762 7.512-.539 10.1 3.761 3.009 3.894 13.4 3.628 17.148-.0192563.2647229.0675192.5262415.2412096.726942.1736903.2007005.4200448.3241162.6847904.343058h.071c.5257052.0013266.9626765-.4046197 1-.929.043-.593.977-14.573-4.371-18.851-1.825-1.463-.759-3.975 1.076-7.64.446-.889.89-1.8 1.266-2.69 1.0032334-.2433062 2.0603992.0608048 2.781.8-1.1937898 1.6627649-.9646211 3.9538803.5348585 5.347251 1.4994796 1.3933708 3.8012274 1.4540747 5.3720662.1416773 1.5708387-1.3123974 1.9204518-3.5882486.8159646-5.3116258-1.1044873-1.7233773-3.3183237-2.3563512-5.1668893-1.4773025-.9728511-.9479098-2.2533277-1.5155913-3.609-1.6.2934347-1.0517343.2468835-2.1693119-.133-3.193.5752214-1.4404155 1.4518222-2.7411669 2.571-3.815 1.4427191 1.5316752 3.8003813 1.7489091 5.4986896.5066466 1.6983084-1.2422624 2.2053911-3.5549727 1.1826506-5.3938498s-3.255005-2.6280264-5.2062292-1.8405041-3.0103288 2.905082-2.470111 4.9387073c-1.2328749 1.069255-2.2395945 2.3741486-2.961 3.838-.6398014-.4793031-1.3355892-.878911-2.072-1.19-.847-1.612-.694-3.817-.306-5.659.068 0 .132.02.2.02 2.0118197.0159335 3.7275187-1.4536304 4.0208477-3.44401498.293329-1.99038454-.9254876-3.89241696-2.8563728-4.45753183s-3.9828766.37964562-4.8089701 2.21410525c-.8260934 1.83445962-.1734566 3.99716776 1.5294952 5.06844156-.4312673 1.7513096-.4993321 3.5723834-.2 5.351-.85-.2666667-1.7833333-.516-2.8-.748-.92-.207-1.795-.383-2.618-.532-.840056-.7337161-1.4728064-1.6750833-1.835-2.73 1.8850816-.7184145 2.942986-2.7254055 2.4703501-4.68659581s-2.328652-3.26594271-4.3340489-3.04677364c-2.005397.21916907-3.5357735 1.89401901-3.5736364 3.91100154-.0378629 2.01698251 1.4285767 3.74808891 3.4243352 4.04236791.2008882.7029039.4863065 1.3788416.85 2.013-1.972-.292-3.841-.501-5.342-.645zm25.07-2.312c1.1045695 0 2 .8954305 2 2s-.8954305 2-2 2-2-.8954305-2-2 .8954305-2 2-2zm2 17c0 1.1045695-.8954305 2-2 2s-2-.8954305-2-2 .8954305-2 2-2 2 .8954305 2 2zm-11-23c1.1045695 0 2 .8954305 2 2s-.8954305 2-2 2-2-.8954305-2-2 .8954305-2 2-2zm-20 11c-1.1045695 0-2-.8954305-2-2s.8954305-2 2-2 2 .8954305 2 2-.8954305 2-2 2zm8 9c-1.1045695 0-2-.8954305-2-2s.8954305-2 2-2 2 .8954305 2 2-.8954305 2-2 2zm-1-17c0-1.1045695.8954305-2 2-2s2 .8954305 2 2-.8954305 2-2 2-2-.8954305-2-2z" fill="#428dff"/></g></g></svg>