<svg height="512" viewBox="0 0 512 512" width="512" xmlns="http://www.w3.org/2000/svg"><g id="Filled_outline" data-name="Filled outline"><rect fill="#17588f" height="304" rx="24" width="240" x="248" y="24"/><path d="m445.7 160a64.045 64.045 0 0 0 -6.13-14.76l-.64-1.12-13.72-24a31.987 31.987 0 0 0 -27.78-16.12h-58.86a31.987 31.987 0 0 0 -27.78 16.12l-13.72 24-.64 1.12a64.112 64.112 0 0 0 -8.43 31.76v62.03a40.854 40.854 0 0 0 8.58 25.07v.01a40.811 40.811 0 0 0 15.42 12.21 41.008 41.008 0 0 0 16.97 3.68h78.06a40.971 40.971 0 0 0 28.97-12 40.5 40.5 0 0 0 3.42-3.89v-.01a40.854 40.854 0 0 0 8.58-25.07v-62.03a63.941 63.941 0 0 0 -2.3-17z" fill="#2d7dbf"/><g fill="#17588f"><path d="m441.89 160h3.81a64.045 64.045 0 0 0 -6.13-14.76l-.64-1.12a36.74 36.74 0 0 0 -30.09 20.3l14.32 7.16a20.823 20.823 0 0 1 18.73-11.58z"/><path d="m441.889 216a20.807 20.807 0 0 1 -16.568-8.134 54.765 54.765 0 0 0 4.494-8.866l1.613-4.031-14.856-5.942-1.612 4.031c-3.687 9.217-9.418 14.942-14.96 14.942v16a25.745 25.745 0 0 0 14.237-4.441 36.708 36.708 0 0 0 27.652 12.441h6.111v-16z"/><path d="m418.34 253.66c.76.86 5.66 6.88 5.66 18.34v4.32a40.811 40.811 0 0 0 15.42-12.21v-.01c-2.04-13.64-8.86-20.86-9.76-21.76z"/><path d="m376 247.906v-39.906a16.019 16.019 0 0 1 16-16h8v-16h-8a16.019 16.019 0 0 1 -16-16v-8.065a36.713 36.713 0 0 0 31.155-20.357l-14.31-7.156a20.808 20.808 0 0 1 -16.845 11.484v-31.906h-16v31.906a20.808 20.808 0 0 1 -16.845-11.484l-14.31 7.156a36.713 36.713 0 0 0 31.155 20.357v8.065a16.019 16.019 0 0 1 -16 16h-8v16h8a16.019 16.019 0 0 1 16 16v39.906a20.808 20.808 0 0 1 -16.845-11.484l-14.31 7.156a36.713 36.713 0 0 0 31.155 20.357v16.065h16v-16.065a36.713 36.713 0 0 0 31.155-20.357l-14.31-7.156a20.808 20.808 0 0 1 -16.845 11.484z"/><path d="m312.84 171.58 14.32-7.16a36.74 36.74 0 0 0 -30.09-20.3l-.64 1.12a64.045 64.045 0 0 0 -6.13 14.76h3.81a20.823 20.823 0 0 1 18.73 11.58z"/><path d="m336 208c-5.542 0-11.273-5.725-14.96-14.94l-1.612-4.031-14.856 5.942 1.613 4.029a54.765 54.765 0 0 0 4.494 8.864 20.807 20.807 0 0 1 -16.568 8.136h-6.111v16h6.111a36.708 36.708 0 0 0 27.652-12.441 25.745 25.745 0 0 0 14.237 4.441z"/><path d="m296.58 264.1v.01a40.811 40.811 0 0 0 15.42 12.21v-4.32c0-11.46 4.9-17.48 5.66-18.34l-11.32-11.32c-.9.9-7.72 8.12-9.76 21.76z"/></g><path d="m296 48h32v16h-32z" fill="#2d7dbf"/><path d="m296 80h16v16h-16z" fill="#2d7dbf"/><path d="m344 48h16v16h-16z" fill="#2d7dbf"/><path d="m376 48h80v16h-80z" fill="#2d7dbf"/><path d="m320 496h-56l-24-88h-8v88h-208v-151.02a31.993 31.993 0 0 1 24.24-31.04l39.76-9.94 16-8 16-16v-48h64v48l16 16 16 8 45.14 11.28a31.979 31.979 0 0 1 23.36 23.64z" fill="#fec9a3"/><path d="m184 232v32.51a72.1 72.1 0 0 1 -64 0v-32.51z" fill="#feb784"/><path d="m284.5 338.917a32 32 0 0 0 -23.369-23.633l-45.131-11.284-16-8-16-16-32 48-32-48-16 16-16 8-39.761 9.94a32 32 0 0 0 -24.239 31.045v151.015h208v-88h8l24 88h56z" fill="#cfcfcd"/><path d="m64 128h176v24h-176z" fill="#7a432a"/><circle cx="232" cy="80" fill="#663723" r="40"/><path d="m72 192h16v-48h-16a24 24 0 0 0 -24 24 24 24 0 0 0 24 24z" fill="#fec093"/><path d="m216 144h16a24 24 0 0 1 24 24 24 24 0 0 1 -24 24h-16a0 0 0 0 1 0 0v-48a0 0 0 0 1 0 0z" fill="#fec093"/><path d="m72 496-.688-32c-19.794-23.557-20.543-57.276-1.4-80h66.088l16 40 16-40h65.4c19.145 22.724 18.4 56.443-1.4 80v32z" fill="#cfcfcd"/><path d="m152 256a72 72 0 0 1 -72-72v-56a64 64 0 0 1 64-64h16a64 64 0 0 1 64 64v56a72 72 0 0 1 -72 72z" fill="#fec9a3"/><path d="m152 216a24.027 24.027 0 0 1 -24-24h16a8 8 0 0 0 16 0h16a24.027 24.027 0 0 1 -24 24z" fill="#feb784"/><path d="m104 296 48 128 48-128-16-16-32 48-32-48z" fill="#3ba6d4"/><path d="m120 280 32 48-24 32-24-64z" fill="#4db7e5"/><path d="m184 280-32 48 24 32 24-64z" fill="#4db7e5"/><path d="m144 40a80 80 0 0 0 -80 80v24h16l112-64 32 64h16v-24a80 80 0 0 0 -80-80z" fill="#7a432a"/><path d="m88 304 16-8 48 128-56-48 8-16-32-16z" fill="#e0e0de"/><path d="m216 304-16-8-48 128 56-48-8-16 32-16z" fill="#e0e0de"/><path d="m144 424h16v72h-16z" fill="#bfbfbd"/><path d="m112 424h16v16h-16z" fill="#bfbfbd"/><path d="m112 480h16v16h-16z" fill="#bfbfbd"/><path d="m312 360-48 136h56l48-136z" fill="#e0e0de"/><path d="m424 312h-40l-8 16h-37.261a24 24 0 0 0 -23.284 18.179l-3.455 13.821h76.892a32 32 0 0 0 31.565-26.739z" fill="#fec9a3"/><path d="m368 360-12 32h-56l12-32z" fill="#4db7e5"/><path d="m64 496.172-.627-29.272c-20.617-26.528-20.587-63.118.423-88.055l12.236 10.308c-16.582 19.683-15.991 49 1.405 69.7a8 8 0 0 1 1.873 4.974l.688 32z" fill="#bfbfbd"/><path d="m240 496h-16v-32a8 8 0 0 1 1.875-5.146c17.4-20.7 17.987-50.017 1.405-69.7l12.236-10.308c20.988 24.912 21.039 61.456.484 87.977z" fill="#bfbfbd"/><rect fill="#e0e0de" height="40" rx="20" width="60" x="80" y="136"/><rect fill="#e0e0de" height="40" rx="20" width="60" x="164" y="136"/><path d="m204 128h-20a28.034 28.034 0 0 0 -25.293 16h-13.414a28.034 28.034 0 0 0 -25.293-16h-20a28 28 0 0 0 0 56h20a28.039 28.039 0 0 0 27.71-24h8.58a28.039 28.039 0 0 0 27.71 24h20a28 28 0 0 0 0-56zm-84 40h-20a12 12 0 0 1 0-24h20a12 12 0 0 1 0 24zm84 0h-20a12 12 0 0 1 0-24h20a12 12 0 0 1 0 24z" fill="#3ba6d4"/><path d="m240 216h16v72h-16z"/><path d="m464 16h-192a31.9 31.9 0 0 0 -10.668 1.825l5.336 15.084a15.948 15.948 0 0 1 5.332-.909h192a16.019 16.019 0 0 1 16 16v256a16.019 16.019 0 0 1 -16 16h-16v16h16a32.036 32.036 0 0 0 32-32v-256a32.036 32.036 0 0 0 -32-32z"/><path d="m16 360h16v136h-16z"/><path d="m77.437 458.854c-17.4-20.7-17.987-50.017-1.405-69.7l-12.232-10.308c-21.01 24.937-21.04 61.527-.423 88.055l.623 29.271 16-.344-.688-32a8 8 0 0 0 -1.875-4.974z"/><path d="m152 216a24.027 24.027 0 0 0 24-24h-16a8 8 0 0 1 -16 0h-16a24.027 24.027 0 0 0 24 24z"/><path d="m112 424h16v16h-16z"/><path d="m112 480h16v16h-16z"/><path d="m424 304h-40a8 8 0 0 0 -7.155 4.422l-5.789 11.578h-87.578a40.05 40.05 0 0 0 -20.4-12.481l-44.29-11.067-14.053-7.027-12.735-12.738v-23.4a79.409 79.409 0 0 0 38.4-53.287h1.6a31.989 31.989 0 0 0 16-59.695v-15.058c1.082-.385 2.154-.794 3.2-1.255a47.992 47.992 0 1 0 -49.274-81.371 87.73 87.73 0 0 0 -41.926-10.621h-16a87.341 87.341 0 0 0 -62.841 26.4l11.424 11.2a71.468 71.468 0 0 1 51.417-21.6h16a71.984 71.984 0 0 1 71.991 71.277v.224c.006.162 0 .331 0 .5v16h-3.054l-13.78-27.576c-.039-.078-.08-.156-.122-.234l-15.88-31.77a8 8 0 0 0 -12.155-2.668c-.469.377-60 41.247-108.574 60.447a1.112 1.112 0 0 1 -.182.039q-3.233.727-6.244 1.157v-15.396a71.959 71.959 0 0 1 9.629-35.994l-13.85-8.012a87.974 87.974 0 0 0 -11.779 44.006v20.305a31.989 31.989 0 0 0 16 59.695h1.6a79.4 79.4 0 0 0 38.4 53.286v23.4l-12.739 12.739-14.053 7.027-38.908 9.727a39.934 39.934 0 0 0 -30.3 38.801h16a23.96 23.96 0 0 1 18.181-23.28l24.58-6.145-10.189 25.474a8 8 0 0 0 3.85 10.126l24.845 12.423-4.422 8.844a8 8 0 0 0 1.948 9.652l53.207 45.606v68.32h16v-68.32l53.207-45.606a8 8 0 0 0 1.948-9.652l-4.422-8.844 24.845-12.423a8 8 0 0 0 3.85-10.126l-10.19-25.475 29.962 7.486a24.057 24.057 0 0 1 13.863 9.55 23.816 23.816 0 0 1 3.66 8.183l13.258 55.674-25.44 68.712-9.39-37.561a67.715 67.715 0 0 0 -15.63-48.752l-12.241 10.308c16.582 19.683 15.991 49-1.405 69.7a8 8 0 0 0 -1.875 5.146v32h16v-29.177a74.335 74.335 0 0 0 6.135-9.3l10.1 40.414 15.522-3.88-.348-1.392 34.312-92.665h39.679l-32.943 93.337 15.088 5.326 46.115-130.663h15.232a39.875 39.875 0 0 0 39.456-33.424l3.543-21.261a8 8 0 0 0 -7.891-9.315zm-207.885-251.794a32.057 32.057 0 0 1 29.03-1.382 31.989 31.989 0 0 1 2.056 57.321 87.589 87.589 0 0 0 -31.086-55.939zm-64.115 211.794a79.511 79.511 0 0 0 24-3.661v17.239l-24 36-24-36v-17.24a79.485 79.485 0 0 0 24 3.662zm0 77.333 14.971 19.961-14.971 39.922-14.971-39.922zm9.8-13.605 23.447-35.171 5.458 5.457-17.064 45.5zm-19.592 0-11.841 15.789-17.064-45.5 5.458-5.457zm73.792-171.728a12.013 12.013 0 0 1 -12 12h-20a12 12 0 0 1 0-24h20a12.013 12.013 0 0 1 12 12zm16 28v-32a16 16 0 0 1 0 32zm-42.814-91.742 11.659 23.311c.038.077.078.153.119.229l6.189 12.384a28.309 28.309 0 0 0 -3.153-.182h-20a28.034 28.034 0 0 0 -25.293 16h-13.414a28.16 28.16 0 0 0 -14.628-13.884c24.707-13.297 47.135-29.316 58.521-37.858zm-89.186 51.742h20a12 12 0 0 1 0 24h-20a12 12 0 0 1 0-24zm-44 24a16.019 16.019 0 0 1 16-16v32a16.019 16.019 0 0 1 -16-16zm32 16v-2.707a27.838 27.838 0 0 0 12 2.707h20a28.039 28.039 0 0 0 27.71-24h8.58a28.039 28.039 0 0 0 27.71 24h20a27.838 27.838 0 0 0 12-2.707v2.707a64 64 0 1 1 -128 0zm17.949 189.991 5.206-10.413a8 8 0 0 0 -3.577-10.733l-25.416-12.708 12.138-30.337 5.331-2.666 20.88 55.68 13.077 34.871zm90.473-21.146a8 8 0 0 0 -3.577 10.733l5.206 10.413-27.637 23.689 13.077-34.871 20.88-55.68 5.329 2.671 12.136 30.342zm121.147 15.155h38.887l-6 16h-38.811zm-9.875-23.761-7.73 25.074-7.682-32.247c-.085-.358-.185-.711-.28-1.066h19.021a32.1 32.1 0 0 0 -3.329 8.239zm104.871-12.294a23.925 23.925 0 0 1 -23.673 20.055h-66.646l.97-3.88a15.977 15.977 0 0 1 15.523-12.12h37.261a8 8 0 0 0 7.155-4.422l5.789-11.578h25.612z"/><path d="m456 177a72.112 72.112 0 0 0 -9.487-35.722l-14.354-25.12a40.086 40.086 0 0 0 -34.729-20.158h-58.86a40.086 40.086 0 0 0 -34.729 20.154l-14.354 25.12a72.112 72.112 0 0 0 -9.487 35.726v62.033a48.97 48.97 0 0 0 48.971 48.967h78.058a48.97 48.97 0 0 0 48.971-48.971zm-143.726 90.47c1.109-9.119 5.269-13.688 5.473-13.905l-.09.092-11.314-11.314a35.157 35.157 0 0 0 -6.941 11.29 32.836 32.836 0 0 1 -3.4-14.6v-7.094a36.661 36.661 0 0 0 25.763-12.376 25.745 25.745 0 0 0 14.235 4.437v-16c-5.542 0-11.273-5.725-14.96-14.94l-1.612-4.031-14.856 5.942 1.613 4.029a54.765 54.765 0 0 0 4.494 8.864 20.767 20.767 0 0 1 -14.679 8.042v-38.906a56.076 56.076 0 0 1 2.506-16.538 20.793 20.793 0 0 1 14.337 11.117l14.314-7.15a36.7 36.7 0 0 0 -21.8-18.675l12.375-21.657a24.054 24.054 0 0 1 20.838-12.097h21.43v23.906a20.808 20.808 0 0 1 -16.845-11.484l-14.31 7.156a36.713 36.713 0 0 0 31.155 20.357v8.065a16.019 16.019 0 0 1 -16 16h-8v16h8a16.019 16.019 0 0 1 16 16v39.906a20.808 20.808 0 0 1 -16.845-11.484l-14.31 7.156a36.713 36.713 0 0 0 31.155 20.357v8.065h-31.029a32.778 32.778 0 0 1 -16.697-4.53zm124.326-13.837a35.157 35.157 0 0 0 -6.941-11.29l-11.314 11.314c.049.049 4.257 4.679 5.379 13.814a32.76 32.76 0 0 1 -16.695 4.529h-31.029v-8.065a36.713 36.713 0 0 0 31.155-20.357l-14.31-7.156a20.808 20.808 0 0 1 -16.845 11.484v-39.906a16.019 16.019 0 0 1 16-16h8v-16h-8a16.019 16.019 0 0 1 -16-16v-8.065a36.713 36.713 0 0 0 31.155-20.357l-14.31-7.156a20.808 20.808 0 0 1 -16.845 11.484v-23.906h21.43a24.054 24.054 0 0 1 20.838 12.093l12.375 21.657a36.7 36.7 0 0 0 -21.8 18.675l14.314 7.15a20.793 20.793 0 0 1 14.337-11.117 56.076 56.076 0 0 1 2.506 16.542v38.91a20.767 20.767 0 0 1 -14.679-8.04 54.765 54.765 0 0 0 4.494-8.87l1.613-4.031-14.856-5.942-1.612 4.031c-3.687 9.217-9.418 14.942-14.96 14.942v16a25.745 25.745 0 0 0 14.237-4.441 36.661 36.661 0 0 0 25.763 12.376v7.094a32.836 32.836 0 0 1 -3.4 14.604z"/><path d="m296 48h32v16h-32z"/><path d="m296 80h16v16h-16z"/><path d="m344 48h16v16h-16z"/><path d="m376 48h80v16h-80z"/></g></svg>