<svg id="Capa_1" enable-background="new 0 0 512 512" height="512" viewBox="0 0 512 512" width="512" xmlns="http://www.w3.org/2000/svg"><g><path d="m376 451h-45v-75c0-8.291-6.709-15-15-15h-120c-8.291 0-15 6.709-15 15v75h-45c-8.291 0-15 6.709-15 15s6.709 15 15 15h240c8.291 0 15-6.709 15-15s-6.709-15-15-15z" fill="#edf5ff"/><path d="m255.952 481h120.048c8.291 0 15-6.709 15-15s-6.709-15-15-15h-45v-75c0-8.291-6.709-15-15-15h-60.048z" fill="#d5e8fe"/><g><path d="m467 391h-422c-24.814 0-45-20.186-45-45v-270c0-24.814 20.186-45 45-45h422c24.814 0 45 20.186 45 45v270c0 24.814-20.186 45-45 45z" fill="#5c6699"/></g><path d="m255.952 391h211.048c24.814 0 45-20.186 45-45v-270c0-24.814-20.186-45-45-45h-211.048z" fill="#404a80"/><path d="m256 91c-57.898 0-105 47.1-105 105v30c0 27.9 10.8 53.399 29.099 71.999 15.901-25.199 43.799 18.001 75.901 18.001s60.3-43.2 76.201-18.001c17.999-18.6 28.799-44.099 28.799-71.999v-30c0-57.9-47.102-105-105-105z" fill="#edf5ff"/><path d="m255.952 315.993c.016 0 .031.007.048.007 32.102 0 60.3-43.2 76.201-18.001 17.999-18.6 28.799-44.099 28.799-71.999v-30c0-57.9-47.102-105-105-105-.016 0-.031.005-.048.005z" fill="#d5e8fe"/><g id="Monitor_2_"><g><path d="m256 241c-24.814 0-45-20.186-45-45s20.186-45 45-45 45 20.186 45 45-20.186 45-45 45z" fill="#80bfff"/></g><g><g><path d="m332.201 297.999c-19.2 20.4-46.201 33.001-76.201 33.001s-57.001-12.601-75.901-33.001c15.901-25.199 43.799-41.999 75.901-41.999s60.3 16.8 76.201 41.999z" fill="#80bfff"/></g></g></g><g><g fill="#69f"><path d="m255.952 240.995c.016 0 .031.005.048.005 24.814 0 45-20.186 45-45s-20.186-45-45-45c-.016 0-.031.005-.048.005z"/><path d="m255.952 330.995c.016 0 .031.005.048.005 30 0 57.001-12.601 76.201-33.001-15.901-25.199-44.099-41.999-76.201-41.999-.016 0-.031.005-.048.005z"/></g></g></g></svg>