<svg xmlns="http://www.w3.org/2000/svg" width="80.875" height="83.688" viewBox="0 0 80.875 83.688"><path d="M81.438,42.406c0,23.11-18.1,41.844-40.437,41.844S.563,65.516.563,42.406,18.667.562,41,.562,81.438,19.3,81.438,42.406ZM36.323,64.562l30-31.045a2.766,2.766,0,0,0,0-3.818l-3.689-3.818a2.547,2.547,0,0,0-3.69,0L34.478,51.2,23.054,39.379a2.548,2.548,0,0,0-3.69,0L15.675,43.2a2.766,2.766,0,0,0,0,3.818L32.633,64.562a2.547,2.547,0,0,0,3.69,0Z" transform="translate(-0.563 -0.563)" fill="#67ce5b"/></svg>