<svg xmlns="http://www.w3.org/2000/svg" width="36" height="36" viewBox="0 0 36 36">
  <path id="Icon_awesome-file-medical-alt" data-name="Icon awesome-file-medical-alt" d="M23.143,9.563V0H7.071A1.816,1.816,0,0,0,5.143,1.688V18H.643A.609.609,0,0,0,0,18.563v1.125a.609.609,0,0,0,.643.563H11.965a.672.672,0,0,1,.579.309l1.6,2.8,4.564-7.995a.686.686,0,0,1,1.149,0l2.788,4.887h5.641a1.135,1.135,0,1,1,0,2.25H21.062l-1.776-3.108-4.564,7.995a.686.686,0,0,1-1.149,0l-2.8-4.887H5.143V34.313A1.816,1.816,0,0,0,7.071,36h27A1.816,1.816,0,0,0,36,34.313V11.25H25.071A1.826,1.826,0,0,1,23.143,9.563Zm12.295-2.18L27.571.492A2.076,2.076,0,0,0,26.2,0h-.49V9H36V8.571A1.583,1.583,0,0,0,35.438,7.383Z"/>
</svg>
