<svg xmlns="http://www.w3.org/2000/svg" width="40.499" height="31.5" viewBox="0 0 40.499 31.5">
  <path id="Icon_awesome-pills" data-name="Icon awesome-pills" d="M7.875,2.25A7.871,7.871,0,0,0,0,10.125v15.75a7.875,7.875,0,0,0,15.75,0V10.125A7.871,7.871,0,0,0,7.875,2.25ZM11.25,18H4.5V10.125a3.375,3.375,0,0,1,6.75,0Zm9.823-2.088a.578.578,0,0,0-.865.056A11.184,11.184,0,0,0,35.838,31.6a.572.572,0,0,0,.056-.865ZM37.23,14.576a11.21,11.21,0,0,0-14.513-1.118.572.572,0,0,0-.056.865L37.484,29.145a.578.578,0,0,0,.865-.056A11.2,11.2,0,0,0,37.23,14.576Z" transform="translate(0 -2.25)"/>
</svg>
