<svg xmlns="http://www.w3.org/2000/svg" width="30" height="37" viewBox="0 0 30 37">
  <path id="Icon_awesome-notes-medical" data-name="Icon awesome-notes-medical" d="M26.25,4.625H20A4.828,4.828,0,0,0,15,0a4.828,4.828,0,0,0-5,4.625H3.75A3.619,3.619,0,0,0,0,8.094V33.531A3.619,3.619,0,0,0,3.75,37h22.5A3.619,3.619,0,0,0,30,33.531V8.094A3.619,3.619,0,0,0,26.25,4.625ZM15,2.891a1.8,1.8,0,0,1,1.875,1.734,1.881,1.881,0,0,1-3.75,0A1.8,1.8,0,0,1,15,2.891Zm7.5,21.969a.6.6,0,0,1-.625.578H17.5v4.047a.6.6,0,0,1-.625.578h-3.75a.6.6,0,0,1-.625-.578V25.438H8.125a.6.6,0,0,1-.625-.578V21.391a.6.6,0,0,1,.625-.578H12.5V16.766a.6.6,0,0,1,.625-.578h3.75a.6.6,0,0,1,.625.578v4.047h4.375a.6.6,0,0,1,.625.578Zm0-13.875a.6.6,0,0,1-.625.578H8.125a.6.6,0,0,1-.625-.578V9.828a.6.6,0,0,1,.625-.578h13.75a.6.6,0,0,1,.625.578Z"/>
</svg>
