<svg xmlns="http://www.w3.org/2000/svg" width="221.947" height="177" viewBox="0 0 221.947 177">
  <path id="Icon_awesome-pills" data-name="Icon awesome-pills" d="M43.158,2.25C19.305,2.25,0,22.044,0,46.5V135c0,24.456,19.305,44.25,43.158,44.25S86.315,159.456,86.315,135V46.5C86.315,22.044,67.01,2.25,43.158,2.25Zm18.5,88.5H24.662V46.5a18.739,18.739,0,0,1,18.5-18.964A18.739,18.739,0,0,1,61.654,46.5Zm53.832-11.734a3.115,3.115,0,0,0-4.74.316c-17.456,24.693-15.568,59.3,6.127,81.546a60.308,60.308,0,0,0,79.534,6.282,3.27,3.27,0,0,0,.308-4.86Zm88.55-7.507A60.308,60.308,0,0,0,124.5,65.227a3.27,3.27,0,0,0-.308,4.86l81.229,83.285a3.115,3.115,0,0,0,4.74-.316C227.618,128.323,225.769,93.753,204.036,71.509Z" transform="translate(0 -2.25)" fill="#94dfb5"/>
</svg>
